<svg xmlns="http://www.w3.org/2000/svg" xmlns:xlink="http://www.w3.org/1999/xlink" width="24" height="24" viewBox="0 0 24 24">
    <defs>
        <path id="a" d="M7 0C3.14 0 0 3.14 0 7c0 5.25 7 13 7 13s7-7.75 7-13c0-3.86-3.14-7-7-7zM5.44 10H4V8.56l3.35-3.34 1.43 1.43L5.44 10zm4.45-4.45l-.7.7-1.44-1.44.7-.7a.38.38 0 0 1 .54 0l.9.9c.15.15.15.39 0 .54z"/>
    </defs>
    <g fill="none" fill-rule="evenodd" transform="translate(5 2)">
        <mask id="b" fill="#fff">
            <use xlink:href="#a"/>
        </mask>
        <g fill="#808080" mask="url(#b)">
            <path d="M-5-2h24v24H-5z"/>
        </g>
    </g>
</svg>
