<svg xmlns="http://www.w3.org/2000/svg" xmlns:xlink="http://www.w3.org/1999/xlink" width="24" height="24" viewBox="0 0 24 24">
    <defs>
        <path id="a" d="M9 6a2 2 0 0 0 2-2c0-.38-.1-.73-.29-1.03L9 0 7.29 2.97C7.1 3.27 7 3.62 7 4c0 1.1.9 2 2 2zm4.6 9.99l-1.07-1.07-1.08 1.07c-1.3 1.3-3.58 1.31-4.89 0l-1.07-1.07-1.09 1.07C3.75 16.64 2.88 17 1.96 17c-.73 0-1.4-.23-1.96-.61V21c0 .55.45 1 1 1h16c.55 0 1-.45 1-1v-4.61c-.56.38-1.23.61-1.96.61-.92 0-1.79-.36-2.44-1.01zM15 9h-5V7H8v2H3c-1.66 0-3 1.34-3 3v1.54c0 1.08.88 1.96 1.96 1.96.52 0 1.02-.2 1.38-.57l2.14-2.13 2.13 2.13c.74.74 2.03.74 2.77 0l2.14-2.13 2.13 2.13c.37.37.86.57 1.38.57 1.08 0 1.96-.88 1.96-1.96V12C18 10.34 16.66 9 15 9z"/>
    </defs>
    <g fill="none" fill-rule="evenodd" transform="translate(3)">
        <mask id="b" fill="#fff">
            <use xlink:href="#a"/>
        </mask>
        <g fill="#808080" mask="url(#b)">
            <path d="M-3 0h24v24H-3z"/>
        </g>
    </g>
</svg>
